<svg width="67" height="28" viewBox="0 0 67 28" fill="none" xmlns="http://www.w3.org/2000/svg">
<path fill-rule="evenodd" clip-rule="evenodd" d="M20.314 0.518002H14.726V2.59657C14.2914 2.02147 13.6953 1.48277 12.9558 0.975637C11.9728 0.301575 10.5846 0 8.862 0C7.27163 0 5.79204 0.392084 4.43249 1.17613C3.08849 1.94071 2.01507 3.05832 1.21043 4.51126C0.395345 5.95821 0 7.68684 0 9.676V10.268C0 12.2583 0.395791 13.9981 1.20954 15.4682L1.21142 15.4715C2.01636 16.8996 3.08834 18.0144 4.42742 18.8021L4.43747 18.8077C5.79647 19.5656 7.27427 19.944 8.862 19.944C10.0318 19.944 11.0325 19.8048 11.8461 19.5064C12.6268 19.2202 13.2787 18.8592 13.7822 18.4117L13.7878 18.4067L13.7933 18.4015C14.1271 18.0862 14.4147 17.7713 14.652 17.4562V21.59C14.652 21.8912 14.581 22.024 14.5275 22.0813C14.48 22.1322 14.3751 22.2 14.116 22.2H2.96V27.27H15.744C17.0879 27.27 18.2115 26.8493 19.0605 25.9736C19.9107 25.1217 20.314 23.9864 20.314 22.626V0.518002ZM10.194 5.07C11.535 5.07 12.6011 5.48604 13.4342 6.29724L13.4439 6.3064C14.2763 7.07479 14.726 8.20758 14.726 9.787V10.157C14.726 11.7085 14.2779 12.8462 13.4389 13.6423C12.5775 14.4595 11.5077 14.874 10.194 14.874C8.88032 14.874 7.8105 14.4595 6.94913 13.6423C6.11006 12.8462 5.662 11.7085 5.662 10.157V9.787C5.662 8.20758 6.11176 7.07482 6.94417 6.30644L6.94913 6.30173C7.8105 5.48454 8.88032 5.07 10.194 5.07Z" fill="black"/>
<path fill-rule="evenodd" clip-rule="evenodd" d="M20.314 0.518002H14.726V2.59657C14.2914 2.02147 13.6953 1.48277 12.9558 0.975637C11.9728 0.301575 10.5846 0 8.862 0C7.27163 0 5.79204 0.392084 4.43249 1.17613C3.08849 1.94071 2.01507 3.05832 1.21043 4.51126C0.395345 5.95821 0 7.68684 0 9.676V10.268C0 12.2583 0.395791 13.9981 1.20954 15.4682L1.21142 15.4715C2.01636 16.8996 3.08834 18.0144 4.42742 18.8021L4.43747 18.8077C5.79647 19.5656 7.27427 19.944 8.862 19.944C10.0318 19.944 11.0325 19.8048 11.8461 19.5064C12.6268 19.2202 13.2787 18.8592 13.7822 18.4117L13.7878 18.4067L13.7933 18.4015C14.1271 18.0862 14.4147 17.7713 14.652 17.4562V21.59C14.652 21.8912 14.581 22.024 14.5275 22.0813C14.48 22.1322 14.3751 22.2 14.116 22.2H2.96V27.27H15.744C17.0879 27.27 18.2115 26.8493 19.0605 25.9736C19.9107 25.1217 20.314 23.9864 20.314 22.626V0.518002ZM10.194 5.07C11.535 5.07 12.6011 5.48604 13.4342 6.29724L13.4439 6.3064C14.2763 7.07479 14.726 8.20758 14.726 9.787V10.157C14.726 11.7085 14.2779 12.8462 13.4389 13.6423C12.5775 14.4595 11.5077 14.874 10.194 14.874C8.88032 14.874 7.8105 14.4595 6.94913 13.6423C6.11006 12.8462 5.662 11.7085 5.662 10.157V9.787C5.662 8.20758 6.11176 7.07482 6.94417 6.30644L6.94913 6.30173C7.8105 5.48454 8.88032 5.07 10.194 5.07Z" fill="url(#paint0_linear_847_8891)"/>
<path fill-rule="evenodd" clip-rule="evenodd" d="M24.2799 17.5146C24.9514 18.4548 25.8493 19.1753 26.9596 19.6776L26.9688 19.6816C28.0762 20.1562 29.3164 20.388 30.6807 20.388C32.0024 20.388 33.1011 20.1988 33.9383 19.7802C34.7212 19.3888 35.3376 18.9251 35.7454 18.3717L35.7523 18.3617C35.9623 18.0617 36.1382 17.7833 36.2718 17.5297C36.4033 18.1597 36.7493 18.6912 37.2997 19.104C37.9968 19.6268 38.8616 19.87 39.8567 19.87H43.4647V15.022H41.4847C41.2256 15.022 41.1208 14.9542 41.0733 14.9033C41.0197 14.846 40.9487 14.7132 40.9487 14.412V7.567C40.9487 5.16485 40.2078 3.25952 38.6657 1.93384C37.1444 0.626068 35.1047 0 32.6047 0C30.9773 0 29.5606 0.253853 28.3711 0.782026C27.2261 1.27682 26.2848 1.94866 25.5626 2.80457L25.5616 2.8057C24.8788 3.6198 24.378 4.52862 24.0619 5.52944L23.9141 5.99751L29.2066 7.77687L29.3205 7.22383C29.4744 6.47609 29.7974 5.89613 30.278 5.45734L30.2863 5.44932C30.7245 5.03022 31.4395 4.774 32.5307 4.774C33.6471 4.774 34.3498 5.04259 34.7593 5.4707L34.7672 5.47856C35.204 5.9154 35.4347 6.48519 35.4347 7.234V7.77H30.9027C29.469 7.77 28.1706 8.00032 27.0161 8.47212C25.8742 8.92413 24.9562 9.6225 24.2799 10.5694L24.2782 10.5717C23.6144 11.5121 23.2987 12.6674 23.2987 14.005C23.2987 15.3437 23.6147 16.5174 24.2707 17.5014L24.2752 17.5081L24.2799 17.5146ZM31.4947 15.614C32.7065 15.614 33.6413 15.285 34.346 14.666C35.0383 14.0551 35.4044 13.2635 35.4329 12.248H31.2357C30.4384 12.248 29.8789 12.4194 29.5007 12.703C29.1445 12.9701 28.9607 13.3338 28.9607 13.857C28.9607 14.372 29.1515 14.7719 29.5523 15.0964C29.9473 15.4162 30.5695 15.614 31.4947 15.614Z" fill="black"/>
<path fill-rule="evenodd" clip-rule="evenodd" d="M24.2799 17.5146C24.9514 18.4548 25.8493 19.1753 26.9596 19.6776L26.9688 19.6816C28.0762 20.1562 29.3164 20.388 30.6807 20.388C32.0024 20.388 33.1011 20.1988 33.9383 19.7802C34.7212 19.3888 35.3376 18.9251 35.7454 18.3717L35.7523 18.3617C35.9623 18.0617 36.1382 17.7833 36.2718 17.5297C36.4033 18.1597 36.7493 18.6912 37.2997 19.104C37.9968 19.6268 38.8616 19.87 39.8567 19.87H43.4647V15.022H41.4847C41.2256 15.022 41.1208 14.9542 41.0733 14.9033C41.0197 14.846 40.9487 14.7132 40.9487 14.412V7.567C40.9487 5.16485 40.2078 3.25952 38.6657 1.93384C37.1444 0.626068 35.1047 0 32.6047 0C30.9773 0 29.5606 0.253853 28.3711 0.782026C27.2261 1.27682 26.2848 1.94866 25.5626 2.80457L25.5616 2.8057C24.8788 3.6198 24.378 4.52862 24.0619 5.52944L23.9141 5.99751L29.2066 7.77687L29.3205 7.22383C29.4744 6.47609 29.7974 5.89613 30.278 5.45734L30.2863 5.44932C30.7245 5.03022 31.4395 4.774 32.5307 4.774C33.6471 4.774 34.3498 5.04259 34.7593 5.4707L34.7672 5.47856C35.204 5.9154 35.4347 6.48519 35.4347 7.234V7.77H30.9027C29.469 7.77 28.1706 8.00032 27.0161 8.47212C25.8742 8.92413 24.9562 9.6225 24.2799 10.5694L24.2782 10.5717C23.6144 11.5121 23.2987 12.6674 23.2987 14.005C23.2987 15.3437 23.6147 16.5174 24.2707 17.5014L24.2752 17.5081L24.2799 17.5146ZM31.4947 15.614C32.7065 15.614 33.6413 15.285 34.346 14.666C35.0383 14.0551 35.4044 13.2635 35.4329 12.248H31.2357C30.4384 12.248 29.8789 12.4194 29.5007 12.703C29.1445 12.9701 28.9607 13.3338 28.9607 13.857C28.9607 14.372 29.1515 14.7719 29.5523 15.0964C29.9473 15.4162 30.5695 15.614 31.4947 15.614Z" fill="url(#paint1_linear_847_8891)"/>
<path fill-rule="evenodd" clip-rule="evenodd" d="M45.8734 0.518002V27.27H51.5354V17.8945C51.788 18.2288 52.0874 18.558 52.431 18.8825L52.4414 18.8923L52.4523 18.9015C52.9795 19.3454 53.6424 19.6926 54.4247 19.9538C55.2579 20.2487 56.254 20.388 57.3994 20.388C58.964 20.388 60.4184 20.0089 61.7535 19.2497L61.7599 19.246C63.1035 18.4556 64.1759 17.3126 64.9796 15.8349C65.7928 14.3395 66.1873 12.5511 66.1873 10.49V9.898C66.1873 7.83694 65.7928 6.04846 64.9796 4.55312C64.1759 3.07537 63.1027 1.94337 61.7567 1.1772C60.4216 0.392561 58.966 0 57.3994 0C55.7034 0 54.325 0.288689 53.3234 0.926964C52.5468 1.40217 51.9204 1.95155 51.4614 2.5808V0.518002H45.8734ZM55.9934 5.07C57.303 5.07 58.3713 5.4941 59.2334 6.33412L59.2382 6.33873C60.0703 7.12817 60.5254 8.32176 60.5254 10.009V10.379C60.5254 12.0653 60.0707 13.275 59.2335 14.0908C58.4004 14.902 57.3344 15.318 55.9934 15.318C54.6809 15.318 53.6119 14.9043 52.751 14.0886C51.9152 13.2729 51.4614 12.0638 51.4614 10.379V10.009C51.4614 8.32176 51.9164 7.12821 52.7485 6.33877L52.7533 6.33412C53.6154 5.4941 54.6837 5.07 55.9934 5.07Z" fill="black"/>
<path fill-rule="evenodd" clip-rule="evenodd" d="M45.8734 0.518002V27.27H51.5354V17.8945C51.788 18.2288 52.0874 18.558 52.431 18.8825L52.4414 18.8923L52.4523 18.9015C52.9795 19.3454 53.6424 19.6926 54.4247 19.9538C55.2579 20.2487 56.254 20.388 57.3994 20.388C58.964 20.388 60.4184 20.0089 61.7535 19.2497L61.7599 19.246C63.1035 18.4556 64.1759 17.3126 64.9796 15.8349C65.7928 14.3395 66.1873 12.5511 66.1873 10.49V9.898C66.1873 7.83694 65.7928 6.04846 64.9796 4.55312C64.1759 3.07537 63.1027 1.94337 61.7567 1.1772C60.4216 0.392561 58.966 0 57.3994 0C55.7034 0 54.325 0.288689 53.3234 0.926964C52.5468 1.40217 51.9204 1.95155 51.4614 2.5808V0.518002H45.8734ZM55.9934 5.07C57.303 5.07 58.3713 5.4941 59.2334 6.33412L59.2382 6.33873C60.0703 7.12817 60.5254 8.32176 60.5254 10.009V10.379C60.5254 12.0653 60.0707 13.275 59.2335 14.0908C58.4004 14.902 57.3344 15.318 55.9934 15.318C54.6809 15.318 53.6119 14.9043 52.751 14.0886C51.9152 13.2729 51.4614 12.0638 51.4614 10.379V10.009C51.4614 8.32176 51.9164 7.12821 52.7485 6.33877L52.7533 6.33412C53.6154 5.4941 54.6837 5.07 55.9934 5.07Z" fill="url(#paint2_linear_847_8891)"/>
<defs>
<linearGradient id="paint0_linear_847_8891" x1="-1.20215" y1="6.1023" x2="68.1004" y2="6.10231" gradientUnits="userSpaceOnUse">
<stop stop-color="#FF8383"/>
<stop offset="0.333333" stop-color="#F8CE64"/>
<stop offset="0.666667" stop-color="#C8F864"/>
<stop offset="1" stop-color="#64F8EF"/>
</linearGradient>
<linearGradient id="paint1_linear_847_8891" x1="-1.20215" y1="6.1023" x2="68.1004" y2="6.10231" gradientUnits="userSpaceOnUse">
<stop stop-color="#FF8383"/>
<stop offset="0.333333" stop-color="#F8CE64"/>
<stop offset="0.666667" stop-color="#C8F864"/>
<stop offset="1" stop-color="#64F8EF"/>
</linearGradient>
<linearGradient id="paint2_linear_847_8891" x1="-1.20215" y1="6.1023" x2="68.1004" y2="6.10231" gradientUnits="userSpaceOnUse">
<stop stop-color="#FF8383"/>
<stop offset="0.333333" stop-color="#F8CE64"/>
<stop offset="0.666667" stop-color="#C8F864"/>
<stop offset="1" stop-color="#64F8EF"/>
</linearGradient>
</defs>
</svg>
