<svg width="40" height="40" viewBox="0 0 40 40" fill="none" xmlns="http://www.w3.org/2000/svg">
<path d="M9.80358 4L9.54177 5.0909L4.39272 28.8289L4 30.5307H10.8072L9.97813 34.4143L9.5854 36.1161H19.3162L19.5344 34.9815L20.9744 28.2616H24.7271C29.9798 28.2616 34.5943 24.8471 35.767 19.3599C36.3833 16.4744 35.7288 14.0308 34.3706 12.3781C33.2688 11.0363 31.7743 10.229 30.2252 9.84722C29.9252 8.46723 29.2925 7.29452 28.4361 6.39998C26.8489 4.74727 24.6453 4 22.5889 4H9.80358ZM12.0727 6.7927H22.5889C23.958 6.7927 25.4689 7.32179 26.4289 8.31996C27.3889 9.31813 27.9507 10.7418 27.4325 13.1636C26.5107 17.4835 23.2489 19.8835 19.1417 19.8835H13.1199L12.9017 20.9744L11.4618 27.738H7.49088L12.0727 6.7927ZM15.6072 8.84359L15.3454 9.93449L13.9054 16.3926L13.5126 18.0944H18.4435C20.9253 18.0944 23.0689 16.289 23.6798 13.8617H23.7235C23.7289 13.8345 23.718 13.8017 23.7235 13.7745C24.0289 12.5527 23.8325 11.2981 23.1562 10.3709C22.4635 9.42177 21.2962 8.84359 20.058 8.84359H15.6072ZM17.8326 11.6363H20.058C20.4944 11.6363 20.7235 11.7617 20.8871 11.9854C21.0508 12.209 21.1653 12.569 21.018 13.1199V13.1636C20.7562 14.2926 19.4199 15.3017 18.4435 15.3017H17.0035L17.8326 11.6363ZM30.3125 12.8581C31.0488 13.1581 31.7416 13.5672 32.2325 14.1672C33.0452 15.1544 33.4925 16.5181 33.0179 18.749C32.0961 23.0689 28.8343 25.4689 24.7271 25.4689H18.7053L18.4871 26.5598L17.0472 33.3234H13.0763L13.6872 30.5307H13.7308L13.949 29.3961L15.389 22.6762H19.1417C24.3944 22.6762 29.0089 19.2617 30.1816 13.7745C30.247 13.4581 30.2743 13.1636 30.3125 12.8581Z" fill="white"/>
</svg>
