<svg width="34" height="34" viewBox="0 0 34 34" fill="none" xmlns="http://www.w3.org/2000/svg">
<path d="M32.5833 4.2496C31.2267 5.20652 29.7246 5.93842 28.135 6.4171C27.2818 5.43607 26.1479 4.74074 24.8866 4.42516C23.6254 4.10957 22.2976 4.18896 21.0829 4.65257C19.8683 5.11619 18.8253 5.94167 18.095 7.01736C17.3648 8.09306 16.9826 9.36707 17 10.6671V12.0838C14.5104 12.1483 12.0435 11.5962 9.81892 10.4765C7.59438 9.35679 5.68127 7.70433 4.24999 5.66626C4.24999 5.66626 -1.41668 18.4163 11.3333 24.0829C8.41574 26.0634 4.94013 27.0564 1.41666 26.9163C14.1667 33.9996 29.75 26.9163 29.75 10.6246C29.7487 10.23 29.7107 9.83636 29.6367 9.44876C31.0825 8.02288 32.1028 6.22261 32.5833 4.2496V4.2496Z" stroke="white" stroke-width="2.83333" stroke-linecap="round" stroke-linejoin="round"/>
</svg>
