<svg width="28" height="28" viewBox="0 0 28 28" fill="none" xmlns="http://www.w3.org/2000/svg">
<path d="M24.8283 0H2.97939C1.33452 0 0 1.33452 0 2.97939V24.8283C0 26.4731 1.33452 27.8076 2.97939 27.8076H24.8283C26.4731 27.8076 27.8076 26.4731 27.8076 24.8283V2.97939C27.8076 1.33452 26.4731 0 24.8283 0ZM17.2122 23.8165C16.6908 23.9096 16.4984 23.5868 16.4984 23.3199C16.4984 22.9848 16.5108 21.2716 16.5108 19.8874C16.5108 18.9191 16.188 18.3046 15.8094 17.9819C18.106 17.7274 20.5268 17.4108 20.5268 13.4445C20.5268 12.3148 20.1233 11.75 19.4654 11.0237C19.5709 10.7568 19.9247 9.65819 19.3598 8.23057C18.497 7.96366 16.5232 9.34163 16.5232 9.34163C15.7039 9.11197 14.8163 8.99403 13.9411 8.99403C13.0659 8.99403 12.1783 9.11197 11.3589 9.34163C11.3589 9.34163 9.38508 7.96366 8.5223 8.23057C7.95746 9.65198 8.30505 10.7506 8.41678 11.0237C7.75883 11.75 7.44848 12.3148 7.44848 13.4445C7.44848 17.3922 9.76371 17.7274 12.0603 17.9819C11.7624 18.2488 11.4955 18.7081 11.4024 19.366C10.8127 19.6329 9.30439 20.0923 8.40436 18.5033C7.83952 17.5225 6.82156 17.4418 6.82156 17.4418C5.81602 17.4294 6.75329 18.075 6.75329 18.075C7.42365 18.3853 7.89538 19.5771 7.89538 19.5771C8.49747 21.4206 11.3775 20.7999 11.3775 20.7999C11.3775 21.6627 11.39 23.0654 11.39 23.3199C11.39 23.5868 11.2037 23.9096 10.6761 23.8165C6.57949 22.4447 3.71182 18.5467 3.71182 13.9907C3.71182 8.29264 8.06918 3.96631 13.7673 3.96631C19.4654 3.96631 24.0834 8.29264 24.0834 13.9907C24.0896 18.5467 21.3088 22.4509 17.2122 23.8165ZM11.1231 20.024C11.0051 20.0488 10.8934 19.9992 10.881 19.9185C10.8686 19.8254 10.9493 19.7447 11.0672 19.7198C11.1851 19.7074 11.2969 19.7571 11.3093 19.8378C11.3279 19.9185 11.2472 19.9992 11.1231 20.024ZM10.5334 19.9681C10.5334 20.0488 10.4403 20.1171 10.3161 20.1171C10.1796 20.1295 10.0865 20.0612 10.0865 19.9681C10.0865 19.8874 10.1796 19.8192 10.3037 19.8192C10.4217 19.8067 10.5334 19.875 10.5334 19.9681ZM9.68302 19.8998C9.65819 19.9805 9.53405 20.0178 9.42853 19.9805C9.31059 19.9557 9.2299 19.8626 9.25473 19.7819C9.27956 19.7012 9.4037 19.664 9.50922 19.6888C9.63336 19.726 9.71405 19.8192 9.68302 19.8998ZM8.91955 19.5647C8.86369 19.6329 8.74575 19.6205 8.65265 19.5274C8.55954 19.4467 8.53471 19.3288 8.59678 19.2729C8.65265 19.2047 8.77058 19.2171 8.86369 19.3102C8.94438 19.3909 8.97541 19.515 8.91955 19.5647ZM8.35471 18.9998C8.29884 19.0371 8.19332 18.9998 8.12505 18.9067C8.05677 18.8136 8.05677 18.7081 8.12505 18.6646C8.19332 18.6088 8.29884 18.6522 8.35471 18.7453C8.42299 18.8384 8.42299 18.9502 8.35471 18.9998ZM7.95125 18.3977C7.89539 18.4536 7.80228 18.4226 7.734 18.3605C7.66572 18.2798 7.65331 18.1867 7.70917 18.1432C7.76504 18.0874 7.85814 18.1184 7.92642 18.1805C7.9947 18.2612 8.00711 18.3543 7.95125 18.3977ZM7.53538 17.9384C7.51055 17.9943 7.42985 18.0067 7.36158 17.9632C7.28089 17.926 7.24364 17.8577 7.26847 17.8019C7.2933 17.7646 7.36158 17.746 7.44227 17.777C7.52296 17.8205 7.5602 17.8888 7.53538 17.9384Z" fill="#920000"/>
</svg>
