<svg width="29" height="28" viewBox="0 0 29 28" fill="none" xmlns="http://www.w3.org/2000/svg">
<g clip-path="url(#clip0_469_142)">
<path d="M26.5909 -0.00585938H1.7186C0.905236 -0.00585938 0.245117 0.654259 0.245117 1.46762V26.3281C0.245117 27.1415 0.905236 27.8016 1.7186 27.8016H26.5791C27.3925 27.8016 28.0526 27.1415 28.0526 26.3281V1.46762C28.0644 0.654259 27.4043 -0.00585938 26.5909 -0.00585938ZM20.2609 20.3753C15.64 20.3753 14.0369 18.2889 13.1882 15.7073L12.3394 13.0433C11.7029 11.0983 10.9485 9.56586 8.60269 9.56586C6.97597 9.56586 5.31388 10.7446 5.31388 14.0217C5.31388 16.5796 6.62233 18.1828 8.46123 18.1828C10.5477 18.1828 11.9386 16.6268 11.9386 16.6268L12.7874 18.949C12.7874 18.949 11.3493 20.3635 8.33157 20.3635C4.59483 20.3635 2.50838 18.171 2.50838 14.116C2.50838 9.89592 4.59483 7.40869 8.52017 7.40869C12.0683 7.40869 13.8601 8.69356 14.9799 12.1592L15.864 14.8232C16.5005 16.7682 17.6322 18.1828 20.3198 18.1828C22.1351 18.1828 23.1017 17.782 23.1017 16.7918C23.1017 16.0138 22.642 15.4598 21.2864 15.1415L19.4711 14.7171C17.255 14.1867 16.3709 13.0315 16.3709 11.2162C16.3709 8.30456 18.7166 7.3969 21.1214 7.3969C23.8444 7.3969 25.4946 8.38707 25.7186 10.7918L23.0546 11.1101C22.9485 9.96664 22.253 9.48334 20.9681 9.48334C19.7893 9.48334 19.0703 10.0138 19.0703 10.9215C19.0703 11.723 19.4121 12.2063 20.5909 12.4657L22.3001 12.8429C24.5988 13.3733 25.8247 14.4932 25.8247 16.6621C25.8129 19.3615 23.5614 20.3753 20.2609 20.3753Z" fill="#920000"/>
</g>
<defs>
<clipPath id="clip0_469_142">
<rect width="27.8076" height="27.8076" fill="white" transform="translate(0.248047)"/>
</clipPath>
</defs>
</svg>
