<svg width="29" height="28" viewBox="0 0 29 28" fill="none" xmlns="http://www.w3.org/2000/svg">
<path d="M23.6692 4.63477H5.13078C3.85626 4.63477 2.82506 5.67755 2.82506 6.95207L2.81348 20.8559C2.81348 22.1304 3.85626 23.1732 5.13078 23.1732H23.6692C24.9437 23.1732 25.9865 22.1304 25.9865 20.8559V6.95207C25.9865 5.67755 24.9437 4.63477 23.6692 4.63477ZM23.2058 9.55903L15.0141 14.6803C14.6433 14.912 14.1567 14.912 13.7859 14.6803L5.59424 9.55903C5.30458 9.37365 5.13078 9.06081 5.13078 8.72481C5.13078 7.94851 5.9766 7.48505 6.63703 7.89058L14.4 12.7453L22.163 7.89058C22.8234 7.48505 23.6692 7.94851 23.6692 8.72481C23.6692 9.06081 23.4954 9.37365 23.2058 9.55903Z" fill="#920000"/>
</svg>
